<svg width="56" height="56" viewBox="0 0 56 56" fill="none" xmlns="http://www.w3.org/2000/svg">
<g clip-path="url(#clip0_917_2367)">
<path fill-rule="evenodd" clip-rule="evenodd" d="M28.7164 16.2779C26.9205 15.534 24.9956 15.1511 23.0518 15.1511V9.90112C25.6851 9.90112 28.2926 10.4198 30.7254 11.4275C33.1583 12.4352 35.3688 13.9123 37.2309 15.7743C39.0929 17.6363 40.5699 19.8469 41.5776 22.2797C42.5854 24.7126 43.104 27.3201 43.104 29.9534H37.854C37.854 28.0095 37.4712 26.0847 36.7273 24.2888C35.9834 22.4929 34.8931 20.8611 33.5186 19.4866C32.144 18.1121 30.5122 17.0218 28.7164 16.2779Z" fill="currentColor"/>
<path fill-rule="evenodd" clip-rule="evenodd" d="M32.5195 7.01948C29.5015 5.76939 26.2669 5.12598 23.0002 5.12598V-0.124023C26.9564 -0.124023 30.8736 0.655188 34.5286 2.1691C38.1834 3.68302 41.5045 5.90202 44.3018 8.69944C47.0991 11.4968 49.3182 14.8177 50.8321 18.4726C52.346 22.1276 53.1252 26.0449 53.1252 30.001H47.8752C47.8752 26.7343 47.2318 23.4998 45.9818 20.4817C44.7317 17.4638 42.8994 14.7216 40.5895 12.4117C38.2797 10.1019 35.5374 8.26956 32.5195 7.01948Z" fill="currentColor"/>
<path fill-rule="evenodd" clip-rule="evenodd" d="M32.9995 30.001V56.001H2.99951V20.001H22.9995C28.5223 20.001 32.9995 24.4782 32.9995 30.001ZM8.99976 44.001V26.001H12.9998V33.001H26.9998V37.001H12.9998V44.001H8.99976ZM15.9998 44.001V40.001H19.9998V44.001H15.9998ZM15.9998 30.001V26.001H22.9998C25.2089 26.001 26.9998 27.7919 26.9998 30.001H15.9998ZM22.9998 40.001V44.001H26.9998V40.001H22.9998Z" fill="currentColor"/>
</g>
<defs>
<clipPath id="clip0_917_2367">
<rect width="56" height="56" fill="white" transform="translate(0 0.000976562)"/>
</clipPath>
</defs>
</svg>
