<svg width="40" height="40" viewBox="0 0 40 40" fill="none" xmlns="http://www.w3.org/2000/svg">
<path fill-rule="evenodd" clip-rule="evenodd" d="M9.98266 9.9837C8.50809 11.4582 7.37725 13.2401 6.67085 15.2022C5.96446 17.1643 5.69996 19.2581 5.89621 21.3342C6.09246 23.4103 6.74462 25.4174 7.80616 27.2124C8.86771 29.0074 10.3124 30.5459 12.0371 31.7179C13.7619 32.8901 15.7242 33.6671 17.7838 33.9933C19.8435 34.3195 21.9499 34.187 23.9523 33.6052C25.9549 33.0234 27.8043 32.0067 29.3685 30.6276C30.9328 29.2485 32.1733 27.5411 33.0015 25.6273L36.0607 26.9511C35.0377 29.3152 33.5053 31.4244 31.5729 33.1279C29.6406 34.8315 27.3561 36.0875 24.8823 36.8062C22.4086 37.5249 19.8067 37.6885 17.2624 37.2856C14.7181 36.8826 12.2941 35.9229 10.1635 34.4749C8.03292 33.027 6.2483 31.1265 4.93702 28.9092C3.62573 26.6919 2.8201 24.2125 2.57767 21.6479C2.33525 19.0833 2.66199 16.4969 3.53458 14.0731C4.40718 11.6494 5.80411 9.44813 7.62568 7.62663L9.98266 9.9837Z" fill="currentColor"/>
<path d="M31.6176 20.9282L29.2606 23.2852L13.65 8.78966C13.0606 8.24234 12.5514 7.61451 12.1376 6.92478L11.8512 6.44744C11.3473 5.60751 11.4796 4.53239 12.1722 3.83977C12.8648 3.14716 13.9399 3.0148 14.7798 3.51876L15.2572 3.80516C15.9469 4.219 16.5747 4.72817 17.1221 5.3176L31.6176 20.9282Z" fill="currentColor"/>
<path d="M34.5639 8.55383L22.7788 14.4464L16.8863 26.2315L15.1185 24.4637L18.0648 9.73233L32.7962 6.78609L34.5639 8.55383Z" fill="currentColor"/>
<path d="M35.7424 19.1604L30.4391 22.1067L27.4928 27.41L25.7251 25.6423L26.9036 18.5712L33.9746 17.3927L35.7424 19.1604Z" fill="currentColor"/>
</svg>
