<svg width="56" height="56" viewBox="0 0 56 56" fill="currentColor" xmlns="http://www.w3.org/2000/svg">
<path d="M16.0005 52.001H19.5005L25.5005 25.001H44.0005V18.001H6.00049V42.001C6.00049 47.5238 10.4776 52.001 16.0005 52.001Z" fill="currentColor"/>
<path fill-rule="evenodd" clip-rule="evenodd" d="M23.0005 52.001H52.0007L47.0007 28.001H28.0005L23.0005 52.001ZM40.5005 34.501V31.001H43.5005V34.501C43.5005 37.8147 40.8142 40.501 37.5005 40.501C34.1868 40.501 31.5005 37.8147 31.5005 34.501V31.001H34.5005V34.501C34.5005 36.1578 35.8436 37.501 37.5005 37.501C39.1573 37.501 40.5005 36.1578 40.5005 34.501Z" fill="currentColor"/>
<path fill-rule="evenodd" clip-rule="evenodd" d="M30.5005 18.001V14.001C30.5005 10.9634 28.0381 8.50098 25.0005 8.50098C21.9629 8.50098 19.5005 10.9634 19.5005 14.001L19.5005 18.001H14.5005V14.001C14.5005 8.20199 19.2015 3.50098 25.0005 3.50098C30.7995 3.50098 35.5005 8.20199 35.5005 14.001V18.001H30.5005Z" fill="currentColor"/>
</svg>
