<svg width="20" height="20" viewBox="0 0 20 20" fill="none" xmlns="http://www.w3.org/2000/svg">
<path d="M9.53834 1.11106C9.70914 0.700417 10.2909 0.700417 10.4617 1.11106L12.5278 6.07854C12.5998 6.25166 12.7626 6.36994 12.9495 6.38493L18.3123 6.81486C18.7556 6.8504 18.9354 7.40366 18.5976 7.69299L14.5117 11.193C14.3693 11.315 14.3071 11.5064 14.3506 11.6887L15.5989 16.9219C15.7021 17.3545 15.2315 17.6965 14.8519 17.4646L10.2606 14.6603C10.1006 14.5626 9.89938 14.5626 9.73937 14.6603L5.14806 17.4646C4.76851 17.6965 4.29788 17.3545 4.40108 16.9219L5.64939 11.6887C5.69289 11.5064 5.6307 11.315 5.48831 11.193L1.40241 7.69299C1.06464 7.40366 1.24441 6.8504 1.68773 6.81486L7.05054 6.38493C7.23744 6.36994 7.40024 6.25166 7.47225 6.07854L9.53834 1.11106Z" fill="#FFC629"/>
</svg>
