<svg width="40" height="40" viewBox="0 0 40 40" fill="none" xmlns="http://www.w3.org/2000/svg">
<path fill-rule="evenodd" clip-rule="evenodd" d="M18.5401 35.001H11.6667C7.98477 35.001 5 32.0162 5 28.3343V2.50098H30V17.501C23.0964 17.501 17.5 23.0974 17.5 30.001C17.5 31.7787 17.8711 33.4698 18.5401 35.001ZM25.8333 9.58431H9.16667V7.08431H25.8333V9.58431ZM9.16667 15.4176H22.5V12.9176H9.16667V15.4176ZM14.1667 21.251H9.16667V18.751H14.1667V21.251Z" fill="currentColor"/>
<path fill-rule="evenodd" clip-rule="evenodd" d="M40 30.001C40 35.5238 35.5228 40.001 30 40.001C24.4772 40.001 20 35.5238 20 30.001C20 24.4781 24.4772 20.001 30 20.001C35.5228 20.001 40 24.4781 40 30.001ZM25.4167 27.501C25.4167 25.5707 26.875 23.9811 28.75 23.7739V22.501H31.25V23.751H33.3333V26.251H29.1667C28.4763 26.251 27.9167 26.8106 27.9167 27.501C27.9167 28.1913 28.4763 28.751 29.1667 28.751H30.8333C32.9044 28.751 34.5833 30.4299 34.5833 32.501C34.5833 34.4312 33.125 36.0208 31.25 36.2281V37.501H28.75V36.251H26.6667V33.751H30.8333C31.5237 33.751 32.0833 33.1913 32.0833 32.501C32.0833 31.8106 31.5237 31.251 30.8333 31.251H29.1667C27.0956 31.251 25.4167 29.572 25.4167 27.501Z" fill="currentColor"/>
</svg>
