<svg width="78" height="32" viewBox="0 0 78 32" fill="none" xmlns="http://www.w3.org/2000/svg">
<g clip-path="url(#clip0_909_262196)">
<path d="M77.1752 2.23961C76.5455 1.27893 75.599 0.566394 74.4984 0.224456C73.3978 -0.117482 72.2118 -0.0674847 71.1443 0.365872C70.0767 0.799229 69.1943 1.58889 68.6485 2.59913C68.1028 3.60938 67.9279 4.77713 68.1538 5.90173C68.3797 7.02633 68.9924 8.03756 69.8866 8.76163C70.7808 9.4857 71.9006 9.87739 73.0536 9.86942C74.2066 9.86145 75.3208 9.4543 76.2048 8.71794C77.0887 7.98158 77.6872 6.96199 77.8974 5.83438C78.0303 5.2179 78.0347 4.58089 77.9105 3.96263C77.7863 3.34437 77.5361 2.75798 77.1752 2.23961Z" fill="#EA0029"/>
<path d="M8.11257 8.26709H0V31.5011H8.11257V8.26709Z" fill="#EA0029"/>
<path d="M26.5967 2.81982H18.5489L16.8324 8.25709H11.2783V14.6446H14.8116C14.1639 16.7147 13.6824 18.4036 13.3672 19.7114C13.0817 20.7695 12.9198 21.8569 12.8846 22.9519C12.8846 25.9024 13.7483 28.1465 15.4755 29.684C17.2027 31.2216 19.7191 31.9893 23.0246 31.9871C24.8864 31.9565 26.7248 31.5693 28.4394 30.8469L27.7043 24.5496C26.7046 24.9206 25.6491 25.121 24.5823 25.1422C23.452 25.1422 22.5938 24.8523 22.0141 24.2758C21.4344 23.6992 21.143 22.8778 21.143 21.8116C21.143 20.6842 21.5251 18.8739 22.2894 16.3808L22.84 14.6446H29.1713V8.25709H24.8608L26.5967 2.81982Z" fill="#EA0029"/>
<path d="M63.8012 24.3618C63.4577 24.0651 63.1848 23.6962 63.0022 23.2817C62.8196 22.8673 62.7319 22.4176 62.7455 21.9653C62.7473 21.5685 62.7776 21.1724 62.8361 20.7799L65.2812 8.53964L66.7094 1.30176C63.7977 1.49699 60.9288 2.10328 58.1888 3.10238L56.4432 11.6996H56.4691H56.4432L54.9438 19.208C54.6477 20.5847 54.4936 21.9877 54.4839 23.3955C54.4665 24.9438 54.8971 26.4644 55.7243 27.7762C56.5648 29.0984 57.7561 30.164 59.1669 30.8556C60.7045 31.6181 62.4039 32.0015 64.1218 31.9734C64.663 31.977 65.2038 31.9468 65.7411 31.8832L67.1175 25.2637H66.5669C65.5635 25.3221 64.5751 24.9998 63.8012 24.3618Z" fill="#EA0029"/>
<path d="M52.0363 13.1653C51.0827 11.401 49.6497 9.9388 47.9007 8.94563C47.8618 8.91986 47.823 8.89408 47.7809 8.87153C45.8304 7.85725 43.6606 7.33152 41.4597 7.33994C39.2587 7.34836 37.0931 7.89068 35.1505 8.91986C33.3277 9.93838 31.8321 11.4494 30.8367 13.2781C29.784 15.2439 29.2544 17.445 29.2984 19.672C29.255 21.9034 29.8011 24.107 30.8821 26.0627C31.9108 27.8925 33.4299 29.4023 35.2703 30.4241C36.0412 30.854 36.8581 31.1965 37.7057 31.4452C39.0018 31.8208 40.3457 32.0074 41.6956 31.9993C42.7479 31.9998 43.7974 31.8919 44.8273 31.6771C45.6341 31.5085 46.4226 31.2625 47.1817 30.9427C48.732 30.3056 50.097 29.2923 51.1522 27.9954C51.2073 27.9277 51.2494 27.8504 51.3012 27.7796L45.977 24.6164L45.1512 24.13C44.8996 24.4903 44.5847 24.8023 44.2217 25.0513C43.4764 25.5499 42.5935 25.8054 41.6956 25.7825C41.1769 25.7986 40.6602 25.712 40.1754 25.5279C39.6906 25.3438 39.2475 25.0657 38.8716 24.7098C38.7842 24.6261 38.7032 24.5391 38.6222 24.4489C38.0191 23.7503 37.676 22.8666 37.6507 21.9461H53.3026C53.4479 21.1173 53.5248 20.2781 53.5325 19.4368C53.5561 17.6718 53.2258 15.9197 52.561 14.283C52.407 13.9011 52.2319 13.5279 52.0363 13.1653ZM44.28 14.4538C44.6362 14.7628 44.9196 15.1461 45.1099 15.5765C45.3002 16.0069 45.3928 16.4737 45.3811 16.9437H37.6701C37.6825 16.4699 37.7904 16.0034 37.9873 15.5719C38.1843 15.1403 38.4662 14.7524 38.8166 14.4312C39.5308 13.7853 40.4684 13.4391 41.4333 13.4649C42.1496 13.4503 42.8591 13.606 43.5027 13.9191C43.7828 14.0598 44.044 14.2352 44.28 14.4409V14.4538Z" fill="#EA0029"/>
<path d="M58.1661 3.10256L56.4432 11.7223C59.1519 10.0994 62.1547 9.02136 65.2812 8.54948L66.732 1.28906C63.805 1.48853 60.9211 2.09909 58.1661 3.10256ZM52.0387 13.1815C52.2404 13.55 52.421 13.9297 52.5796 14.3185C50.2473 16.4843 48.3637 19.0833 47.0352 21.9687H39.376C39.9679 20.2325 40.7135 18.552 41.6041 16.947H45.3835C45.3952 16.4769 45.3026 16.0101 45.1123 15.5798C44.922 15.1494 44.6386 14.7661 44.2824 14.457C44.0465 14.2502 43.7854 14.0738 43.5051 13.932C44.791 12.1209 46.2651 10.4496 47.9031 8.94569C49.6521 9.93886 51.0851 11.401 52.0387 13.1654V13.1815Z" fill="url(#paint0_linear_909_262196)"/>
</g>
<defs>
<linearGradient id="paint0_linear_909_262196" x1="65.5002" y1="2.49985" x2="47.0002" y2="26.4998" gradientUnits="userSpaceOnUse">
<stop offset="0.49353" stop-color="#FFDBA5"/>
<stop offset="1" stop-color="#FFE975" stop-opacity="0"/>
</linearGradient>
<clipPath id="clip0_909_262196">
<rect width="78" height="32" fill="white"/>
</clipPath>
</defs>
</svg>
